<svg width="169" height="110" viewBox="0 0 169 110" fill="none" xmlns="http://www.w3.org/2000/svg">
<path opacity="0.1" d="M48.1567 87.4211C44.946 81.537 47.432 75.3651 55.1798 71.1375C62.8745 66.9389 69.463 68.1594 72.6737 74.0435C75.8843 79.9276 73.3983 86.0995 65.6505 90.3271C57.9558 94.5257 51.3673 93.3052 48.1567 87.4211ZM12.5268 52.0348C2.90378 36.923 12.1065 22.6146 27.0184 14.478C41.771 6.42824 57.3989 7.05034 65.035 21.0449C70.3861 30.8518 66.7953 37.9017 63.2482 43.8959C58.9868 51.1054 57.2543 54.1145 60.2046 59.5215L61.3616 61.6419L42.8942 71.7186L42.1276 70.6922C36.2213 62.7706 35.3939 55.4485 40.3838 47.4288C43.8391 41.8974 46.1121 38.1118 43.856 33.977C41.6866 30.0013 37.6205 29.7434 34.4896 31.4518C30.7218 33.5077 29.9488 37.6443 31.8963 41.4659L12.5268 52.0348Z" fill="#FF4605"/>
<path opacity="0.1" d="M116.008 84.8905C118.877 81.9592 122.933 82.3098 126.793 86.0871C130.626 89.8386 131.09 93.9122 128.222 96.8435C125.353 99.7748 121.297 99.4242 117.437 95.6469C113.604 91.8954 113.139 87.8218 116.008 84.8905ZM130.34 57.7116C137.461 49.3773 147.48 52.2027 154.909 59.4727C162.258 66.6652 164.69 75.9211 157.867 82.8928C153.086 87.7783 148.318 86.9383 144.176 85.9351C139.195 84.7312 137.125 84.2558 134.489 86.9494L133.455 88.0057L124.255 79.0022L124.718 78.37C128.297 73.4968 132.433 71.7029 138.019 73.188C141.874 74.2204 144.495 74.8732 146.511 72.8134C148.45 70.8328 147.873 68.4074 146.313 66.8809C144.436 65.044 141.877 65.3317 139.99 67.1549L130.34 57.7116Z" fill="#FF4605"/>
</svg>
