<svg width="30" height="30" viewBox="0 0 30 30" fill="none" xmlns="http://www.w3.org/2000/svg">
<path d="M30 15C30 23.2844 23.2844 30 15 30C6.71562 30 0 23.2844 0 15C0 6.71562 6.71562 0 15 0C23.2844 0 30 6.71562 30 15Z" fill="#4A7AFF"/>
<path d="M15.6581 29.9847C23.6369 29.6402 29.9998 23.0635 29.9998 15C29.9998 14.9416 29.9982 14.8835 29.9975 14.8251L19.5854 4.41284L8.45264 16.0492L14.6382 22.2347L11.7861 26.1127L15.6581 29.9847Z" fill="#0053BF"/>
<path d="M19.5857 4.41289V7.8095C19.5857 7.8095 15.686 7.24347 15.686 9.75934V12.2752H19.2083L18.7681 16.112H15.686V26.1127H11.7863V16.112L8.45264 16.049V12.2752H11.7234V9.38191C11.7234 9.38191 11.5075 5.07779 15.7489 4.28723C17.5102 3.95879 19.5857 4.41289 19.5857 4.41289Z" fill="white"/>
<path d="M19.5855 7.8095V4.41289C19.5855 4.41289 17.51 3.95879 15.7487 4.28723C15.4736 4.3385 15.2177 4.40488 14.979 4.48339V26.1127H15.6858V16.112H18.7677L19.2081 12.2752H15.6858C15.6858 12.2752 15.6858 12.2752 15.6858 9.75934C15.6858 7.24347 19.5855 7.8095 19.5855 7.8095Z" fill="#DCE1EB"/>
</svg>
