<svg width="30" height="30" viewBox="0 0 30 30" fill="none" xmlns="http://www.w3.org/2000/svg">
<path d="M15 30C23.2843 30 30 23.2843 30 15C30 6.71573 23.2843 0 15 0C6.71573 0 0 6.71573 0 15C0 23.2843 6.71573 30 15 30Z" fill="#65A2D9"/>
<path d="M23.0282 8.1637C21.4636 9.52125 19.9079 10.7111 18.6364 12.3738C15.5086 16.1456 11.6864 21.4968 6.48486 20.6991L15.7784 29.9801C23.6567 29.5774 29.9286 23.0958 29.9983 15.1339L23.0282 8.1637Z" fill="#3A7CA5"/>
<path d="M23.3124 9.51982C22.9308 9.6891 22.5348 9.82257 22.1283 9.91914C22.5762 9.49369 22.9129 8.96136 23.1028 8.36734C23.1571 8.19783 22.9728 8.05105 22.8197 8.14187C22.2542 8.47732 21.6452 8.72875 21.0095 8.88964C20.9727 8.89902 20.9347 8.90371 20.8965 8.90371C20.7805 8.90371 20.6682 8.86076 20.5794 8.78271C19.9031 8.18658 19.0331 7.85828 18.1299 7.85828C17.739 7.85828 17.3444 7.91921 16.9571 8.03939C15.7567 8.41164 14.8304 9.40193 14.5397 10.6236C14.4307 11.0816 14.4013 11.5404 14.452 11.9867C14.4577 12.038 14.4336 12.0737 14.4187 12.0905C14.3923 12.1199 14.3552 12.1369 14.3164 12.1369C14.3122 12.1369 14.3076 12.1367 14.3033 12.1363C11.6756 11.892 9.30602 10.6262 7.6313 8.5716C7.54604 8.46677 7.3821 8.47966 7.31401 8.59632C6.98612 9.15918 6.8128 9.80271 6.8128 10.4576C6.8128 11.4612 7.21616 12.407 7.91653 13.0966C7.62198 13.0267 7.33686 12.9167 7.07196 12.7696C6.94376 12.6984 6.7862 12.7901 6.78438 12.9366C6.76622 14.4275 7.63915 15.7542 8.94678 16.3516C8.92042 16.3522 8.89405 16.3524 8.86768 16.3524C8.66044 16.3524 8.45044 16.3326 8.24395 16.2929C8.09964 16.2656 7.97841 16.4023 8.02317 16.5421C8.44774 17.8674 9.58862 18.8441 10.9541 19.0657C9.82094 19.8265 8.50118 20.2277 7.1278 20.2277L6.69971 20.2275C6.56759 20.2275 6.45596 20.3136 6.42257 20.4414C6.38946 20.567 6.45034 20.6999 6.56296 20.7654C8.11053 21.6661 9.87591 22.142 11.6687 22.142C13.2381 22.142 14.7061 21.8307 16.0319 21.2164C17.2475 20.6533 18.3216 19.8485 19.2245 18.8242C20.0657 17.8699 20.7234 16.7684 21.1795 15.55C21.6141 14.3889 21.8439 13.1496 21.8439 11.9668V11.9103C21.8439 11.7204 21.9298 11.5417 22.0797 11.4198C22.6484 10.958 23.1438 10.4145 23.5517 9.80429C23.6595 9.64328 23.4896 9.44125 23.3124 9.51982Z" fill="white"/>
<path d="M23.3129 9.51982C22.9311 9.68909 22.5353 9.82257 22.1288 9.91913C22.5767 9.49368 22.9134 8.96136 23.1033 8.36734C23.1576 8.19783 22.9733 8.05105 22.8202 8.14187C22.2548 8.47732 21.6458 8.72874 21.01 8.88964C20.9732 8.89902 20.9353 8.9037 20.897 8.9037C20.781 8.9037 20.6687 8.86076 20.5799 8.78271C19.9037 8.18658 19.0337 7.85828 18.1304 7.85828C17.7396 7.85828 17.345 7.91921 16.9576 8.03939C16.1184 8.2996 15.4141 8.86251 14.9663 9.59482V21.6345C15.3309 21.5156 15.6866 21.3765 16.0326 21.2162C17.2481 20.6531 18.3222 19.8483 19.2251 18.824C20.0664 17.8697 20.724 16.7682 21.1801 15.5498C21.6148 14.3887 21.8446 13.1494 21.8446 11.9666V11.9101C21.8446 11.7202 21.9304 11.5415 22.0804 11.4197C22.6491 10.9578 23.1444 10.4143 23.5523 9.80411C23.66 9.64327 23.4901 9.44124 23.3129 9.51982Z" fill="#D1D1D1"/>
</svg>
