<svg width="19" height="13" viewBox="0 0 19 13" fill="none" xmlns="http://www.w3.org/2000/svg">
<path d="M18.9973 12.0421C18.9959 11.9991 18.9944 11.9559 18.993 11.9126C18.9915 11.8693 18.99 11.8258 18.9884 11.7822L18.9866 11.7331L18.9865 11.729L18.9861 11.6924L18.9859 11.6907L18.9814 11.6296C18.976 11.5572 18.9706 11.4845 18.9652 11.4118L18.961 11.3568L18.9548 11.2854C18.9505 11.2379 18.9462 11.1905 18.9419 11.1431C18.9374 11.0959 18.9329 11.0487 18.9285 11.0016C18.9262 10.9781 18.9239 10.9547 18.9216 10.9313C18.9189 10.9096 18.9161 10.888 18.9133 10.8664C18.8906 10.6948 18.8702 10.5263 18.8412 10.3642C18.8275 10.2831 18.8148 10.2034 18.8006 10.1257C18.785 10.0482 18.7698 9.97239 18.755 9.89857C18.727 9.75086 18.6918 9.6129 18.6621 9.48537C18.6545 9.45356 18.647 9.42234 18.6398 9.39189C18.6317 9.36157 18.6238 9.33202 18.6161 9.30316C18.6004 9.24559 18.5856 9.19096 18.5717 9.13969C18.5575 9.08847 18.5449 9.0404 18.5319 8.99632C18.5184 8.95239 18.506 8.91202 18.4948 8.87556C18.4783 8.82199 18.4643 8.77687 18.4533 8.74122C18.437 8.68859 18.3835 8.659 18.3324 8.67415L15.1201 9.62668C15.0712 9.64118 15.0409 9.69192 15.0502 9.74399C15.0537 9.76343 15.0576 9.7857 15.0621 9.81061C15.0667 9.83568 15.0717 9.86349 15.0773 9.89372C15.0825 9.92404 15.0866 9.95726 15.0918 9.99237C15.097 10.0275 15.1025 10.065 15.1083 10.1044C15.1111 10.1241 15.1144 10.1442 15.117 10.1649C15.1193 10.1858 15.1216 10.2071 15.124 10.2288C15.133 10.3159 15.1463 10.4093 15.1523 10.5094C15.1562 10.5592 15.1603 10.6103 15.1645 10.6626C15.1676 10.715 15.1692 10.7687 15.1718 10.823C15.1788 10.9315 15.1775 11.0444 15.1795 11.1584L15.1799 11.2008L15.1785 11.2383C15.1777 11.2634 15.1768 11.2885 15.176 11.3136C15.1754 11.3387 15.1747 11.3638 15.1741 11.3889L15.1733 11.4265L15.1711 11.4807C15.1681 11.5536 15.1651 11.6264 15.1621 11.699L15.1599 11.7534L15.1596 11.7602L15.1596 11.7618C15.1596 11.77 15.159 11.6971 15.1592 11.7286L15.1589 11.7312L15.156 11.7634C15.1536 11.792 15.1511 11.8204 15.1486 11.8488C15.1462 11.8771 15.1439 11.9053 15.1415 11.9333C15.1383 11.9613 15.1351 11.9891 15.1319 12.0167C15.1251 12.0718 15.1209 12.1264 15.1125 12.1797C15.1051 12.2329 15.0978 12.2852 15.0907 12.3365C15.0822 12.3874 15.0738 12.4372 15.0658 12.4856C15.0584 12.5341 15.0486 12.5808 15.0399 12.626C15.0308 12.6711 15.0235 12.7149 15.0141 12.7565C15.0049 12.7981 14.996 12.8379 14.9876 12.8757C14.9834 12.8944 14.9794 12.9126 14.9755 12.9304C14.9714 12.9456 14.9675 12.9603 14.9637 12.9746C14.9615 12.9833 14.9594 12.9915 14.9572 13H18.886C18.9386 13 18.9825 12.957 18.9845 12.9023C18.9845 12.9019 18.9845 12.9016 18.9845 12.9013C18.9878 12.8251 18.9911 12.747 18.9946 12.6671C18.996 12.5872 18.9975 12.5057 18.9991 12.4227C19.0013 12.3398 18.9989 12.2556 18.9987 12.1705C18.9982 12.1279 18.9978 12.0851 18.9973 12.0421Z" fill="#757579"/>
<path d="M17.9758 7.75134C18.0285 7.72926 18.0525 7.66574 18.0282 7.61232C18.0174 7.58858 18.0048 7.56082 17.9905 7.52941C17.977 7.49991 17.9621 7.46723 17.9459 7.43167C17.9249 7.38719 17.9022 7.33912 17.878 7.28774C17.8535 7.23657 17.8275 7.1821 17.8001 7.12471C17.7862 7.09486 17.7725 7.07025 17.7582 7.04223C17.744 7.01485 17.7294 6.98684 17.7145 6.95822C17.6846 6.90112 17.654 6.84141 17.6211 6.78027C17.5872 6.71979 17.5521 6.65724 17.516 6.59293C17.4979 6.56086 17.4796 6.52833 17.461 6.49545C17.4416 6.46307 17.422 6.43029 17.4021 6.39716C17.3622 6.33117 17.3213 6.26372 17.2799 6.19517C17.1923 6.06094 17.1052 5.92056 17.0079 5.78393C16.984 5.74953 16.96 5.71501 16.936 5.68038L16.8998 5.62848L16.8621 5.57743C16.8117 5.50952 16.7611 5.44139 16.7105 5.37323C16.659 5.30587 16.6057 5.23992 16.5535 5.17372C16.5271 5.14084 16.5015 5.10748 16.4746 5.07535C16.4475 5.04332 16.4206 5.01138 16.3938 4.97956C16.3669 4.94786 16.3402 4.91623 16.3135 4.88478C16.2871 4.85321 16.2604 4.82219 16.2329 4.79218C16.1784 4.7318 16.1246 4.67218 16.0717 4.61352C16.0187 4.55504 15.9638 4.50008 15.9116 4.44514C15.859 4.39049 15.8079 4.33682 15.7557 4.28697C15.704 4.2367 15.6538 4.18779 15.6052 4.14047C15.5569 4.09304 15.5075 4.04996 15.4615 4.0073C15.4151 3.96509 15.3707 3.92466 15.3284 3.8862C15.285 3.84901 15.2439 3.81376 15.2052 3.78063C15.1666 3.74762 15.1304 3.71674 15.0969 3.68819C15.0634 3.65974 15.0313 3.63508 15.0031 3.61208C14.9619 3.57922 14.9272 3.55146 14.8995 3.5294C14.8574 3.49577 14.7974 3.50295 14.7636 3.54555L13.0395 5.71707C13.007 5.75802 13.0098 5.81788 13.0461 5.85525C13.0605 5.87007 13.0771 5.88722 13.0958 5.90651C13.1138 5.92526 13.1343 5.94511 13.1554 5.9683C13.1765 5.99146 13.1992 6.01654 13.2236 6.0433C13.248 6.06994 13.2739 6.09828 13.3012 6.12816C13.3275 6.15901 13.3552 6.19149 13.3841 6.22535C13.4127 6.25952 13.4439 6.29344 13.4735 6.33128C13.5035 6.36874 13.5344 6.40744 13.5663 6.44726C13.5987 6.48634 13.6296 6.52877 13.6617 6.57164C13.6934 6.6148 13.7272 6.65736 13.7591 6.703C13.7909 6.74849 13.8233 6.79473 13.8561 6.84156C13.8728 6.86459 13.8887 6.88863 13.9043 6.91302C13.9201 6.93724 13.936 6.96155 13.9519 6.98598C13.9679 7.01029 13.9839 7.03472 14 7.05924C14.016 7.08375 14.0307 7.10939 14.0462 7.13447C14.0767 7.18508 14.1082 7.23494 14.1382 7.28591C14.1673 7.33737 14.1965 7.38886 14.2255 7.44012L14.2473 7.47837L14.2678 7.51743C14.2814 7.54336 14.295 7.56925 14.3085 7.59499C14.3644 7.69673 14.4116 7.80164 14.461 7.9002C14.4836 7.95073 14.5058 8.00038 14.5276 8.04904C14.5384 8.07326 14.5492 8.09724 14.5598 8.1209C14.5697 8.145 14.5794 8.16878 14.589 8.19228C14.6083 8.23902 14.6271 8.28455 14.6453 8.32853C14.662 8.37312 14.6782 8.4162 14.6938 8.45753C14.7016 8.47818 14.7092 8.49838 14.7166 8.51813C14.7237 8.5374 14.7324 8.55826 14.7371 8.5743C14.7482 8.60799 14.7587 8.63998 14.7686 8.67003C14.7786 8.69987 14.7881 8.72778 14.7968 8.75361C14.8083 8.78921 14.8188 8.82185 14.8283 8.85135C14.8389 8.88432 14.8482 8.91346 14.8562 8.93843C14.8742 8.99447 14.9338 9.02304 14.9865 9.00103L17.9758 7.75134Z" fill="#757579"/>
<path d="M9.19614 3.87261C9.22226 3.87632 9.25114 3.88042 9.28262 3.88489C9.3139 3.89055 9.34774 3.89669 9.38388 3.90324C9.41996 3.9097 9.45836 3.91654 9.49882 3.92378C9.53398 3.92986 9.5704 3.93869 9.60826 3.94693L10.6963 1.63106C10.6424 1.6223 10.5889 1.6136 10.5365 1.60509C10.5006 1.59954 10.4652 1.59315 10.43 1.58857C10.3948 1.58414 10.36 1.57974 10.3256 1.57542C10.257 1.56695 10.1903 1.55868 10.1258 1.55071C10.0612 1.54495 9.99866 1.53937 9.93868 1.53402C9.87868 1.52924 9.82146 1.52293 9.76668 1.52023C9.712 1.51744 9.66012 1.51477 9.61138 1.51228C9.56268 1.50988 9.51712 1.50766 9.47502 1.50558C9.43288 1.50487 9.39416 1.50422 9.35918 1.50364C9.30998 1.50302 9.26822 1.5025 9.23474 1.50208C9.18164 1.50141 9.1377 1.5446 9.13516 1.59979L9.03594 3.7553C9.0335 3.80841 9.07032 3.85465 9.12094 3.86187C9.1425 3.86495 9.16764 3.86855 9.19614 3.87261Z" fill="#757579"/>
<path d="M12.1205 5.05951C12.1498 5.08163 12.1775 5.10261 12.2035 5.12236C12.2296 5.1418 12.254 5.15999 12.2766 5.17682C12.2864 5.18381 12.3025 5.19655 12.3157 5.20675C12.3293 5.2173 12.3422 5.22735 12.3545 5.23688C12.3813 5.25767 12.4049 5.27603 12.4251 5.29174C12.4707 5.32708 12.5353 5.31513 12.5664 5.26572L13.987 3.01408C14.0182 2.96468 14.0031 2.89823 13.9538 2.86883C13.9319 2.85576 13.9063 2.84048 13.8773 2.82319C13.864 2.81524 13.85 2.80689 13.8353 2.79811C13.8193 2.78868 13.8026 2.77882 13.7851 2.76854C13.7447 2.74536 13.701 2.72032 13.6543 2.69354C13.6075 2.66704 13.5578 2.63887 13.5054 2.60913C13.4555 2.58309 13.403 2.55573 13.3482 2.52715C13.2932 2.49923 13.2371 2.46816 13.1769 2.43996C13.117 2.4114 13.0551 2.38187 12.9914 2.35151C12.9282 2.32046 12.8615 2.29226 12.7938 2.26267C12.7258 2.2337 12.6574 2.20203 12.5859 2.17408C12.5678 2.16694 12.5494 2.15972 12.5312 2.15252L11.9184 4.92031C11.9522 4.94245 11.9842 4.96592 12.0156 4.98711C12.0522 5.01235 12.0872 5.03652 12.1205 5.05951Z" fill="#757579"/>
<path d="M7.28866 3.86133C7.3161 3.85757 7.34304 3.8529 7.36994 3.84995C7.39684 3.84712 7.42342 3.84431 7.44962 3.84152C7.50192 3.83588 7.55278 3.83039 7.602 3.82506C7.65136 3.82163 7.69906 3.8183 7.74484 3.81509C7.76768 3.81347 7.79004 3.81189 7.8119 3.81032C7.8337 3.80881 7.85554 3.80687 7.87426 3.80685C7.91284 3.80579 7.94946 3.80481 7.98384 3.80387C8.01812 3.80275 8.05016 3.80169 8.07984 3.80071C8.11642 3.80046 8.15002 3.80023 8.18034 3.80002C8.21374 3.79984 8.24326 3.79967 8.2685 3.79952C8.3253 3.79921 8.36994 3.74916 8.36622 3.69018L8.23834 1.65968C8.2346 1.6007 8.18408 1.55714 8.12774 1.56455C8.10268 1.56784 8.07342 1.57169 8.04028 1.57604C8.00956 1.5801 7.97554 1.58461 7.9385 1.58953C7.89474 1.59629 7.84742 1.60357 7.79684 1.61138C7.74642 1.61937 7.69274 1.62788 7.63616 1.63685C7.6072 1.64109 7.58054 1.64673 7.55256 1.65223C7.52466 1.65776 7.49612 1.66345 7.46698 1.66923C7.4088 1.68093 7.34822 1.69312 7.28546 1.70573C7.2232 1.72049 7.1588 1.73576 7.09262 1.75143C7.0596 1.75932 7.02612 1.76733 6.99224 1.77545C6.9584 1.78369 6.92446 1.79376 6.89004 1.80302C6.82134 1.82207 6.7512 1.84152 6.67984 1.86129C6.6092 1.88346 6.53738 1.90597 6.4647 1.92878C6.42846 1.94046 6.39185 1.95147 6.35545 1.96393C6.31921 1.97681 6.28271 1.98974 6.24611 2.00274C6.20957 2.01577 6.17289 2.02884 6.13611 2.04197C6.09931 2.055 6.06245 2.06809 6.02609 2.08301C5.95319 2.11196 5.88001 2.14103 5.80683 2.1701C5.73397 2.19978 5.66231 2.23266 5.59049 2.26377C5.55469 2.27965 5.51879 2.29497 5.48341 2.31126C5.44827 2.32814 5.41325 2.34496 5.37835 2.36173C5.34353 2.3785 5.30883 2.39523 5.27433 2.41186C5.23983 2.42847 5.20547 2.44483 5.17207 2.46287C5.10503 2.49808 5.03881 2.53288 4.97369 2.56709C4.90855 2.60107 4.84647 2.63858 4.78481 2.6731C4.72343 2.70827 4.66307 2.74182 4.60613 2.77797C4.54887 2.8133 4.49317 2.8477 4.43929 2.88096C4.38525 2.91376 4.33513 2.94918 4.28601 2.98118C4.23723 3.01371 4.19049 3.04491 4.14603 3.07456C4.10253 3.10563 4.06125 3.1351 4.02247 3.1628C3.98379 3.19052 3.94759 3.21645 3.91411 3.24044C3.88067 3.26444 3.85109 3.28822 3.82383 3.30879C3.78689 3.33717 3.75535 3.3614 3.72983 3.381C3.68721 3.41373 3.67721 3.47556 3.70701 3.52116L4.51731 4.76077C4.54615 4.80489 4.60253 4.81873 4.64719 4.79249C4.66777 4.78042 4.69209 4.76612 4.71983 4.74985C4.74401 4.73592 4.77017 4.71948 4.79971 4.70348C4.82923 4.68746 4.86115 4.67018 4.89525 4.6517C4.92925 4.6332 4.96545 4.61352 5.00359 4.59277C5.04239 4.57341 5.08317 4.55306 5.12573 4.53183C5.16849 4.51111 5.21187 4.48736 5.25865 4.46665C5.30507 4.44545 5.35307 4.42353 5.40243 4.401C5.45129 4.37758 5.50305 4.35713 5.55541 4.33528C5.60805 4.31405 5.66077 4.29003 5.71599 4.26974C5.77097 4.24912 5.82689 4.22816 5.88347 4.20694C5.91153 4.19584 5.94041 4.18646 5.96935 4.17684C5.99823 4.16717 6.02727 4.15745 6.05641 4.14769C6.08549 4.13791 6.11469 4.12808 6.14397 4.11822C6.17341 4.10892 6.20327 4.10059 6.23293 4.09169C6.29251 4.07454 6.35169 4.05552 6.41168 4.03958C6.47172 4.02411 6.53176 4.00865 6.59156 3.99327C6.62124 3.98505 6.65136 3.97862 6.68134 3.97219C6.71126 3.96564 6.7411 3.9591 6.77084 3.95259C6.80048 3.94603 6.83002 3.93952 6.85942 3.93303C6.88888 3.92691 6.9185 3.92218 6.94772 3.91671C7.00616 3.90616 7.06388 3.89571 7.12068 3.88547C7.17768 3.87729 7.23374 3.86922 7.28866 3.86133Z" fill="#757579"/>
<path d="M1.7635 5.46405C1.74226 5.49531 1.72094 5.52671 1.69952 5.55824C1.67816 5.58975 1.65672 5.62138 1.6352 5.65312C1.61378 5.68489 1.59374 5.71786 1.5729 5.75028C1.53182 5.81557 1.48978 5.88035 1.44954 5.94636C1.41024 6.01293 1.37094 6.07951 1.3318 6.14583L1.3026 6.19549L1.27488 6.24595C1.25646 6.2795 1.2381 6.31298 1.2198 6.3463C1.145 6.47851 1.08002 6.61366 1.01398 6.74202C0.983238 6.80747 0.952998 6.87184 0.923398 6.93485C0.908718 6.96632 0.894178 6.99749 0.879838 7.02825C0.866338 7.05942 0.853018 7.09025 0.839858 7.12067C0.813658 7.1814 0.788178 7.2405 0.763518 7.29764C0.740518 7.35552 0.718278 7.41142 0.696938 7.46507C0.676018 7.51888 0.654878 7.56981 0.636859 7.61923C0.619079 7.6687 0.602199 7.71565 0.586319 7.75975C0.570519 7.8038 0.555739 7.84503 0.542079 7.88316C0.529459 7.92166 0.517879 7.95701 0.507399 7.98896C0.493799 8.03095 0.482119 8.067 0.472579 8.09651C0.455679 8.14866 0.481379 8.20524 0.530779 8.22495L1.28498 8.52581C1.33298 8.54496 1.38704 8.52261 1.40922 8.47435C1.42022 8.45046 1.43336 8.42184 1.44846 8.38898C1.46098 8.36191 1.47482 8.33192 1.48992 8.29927C1.50596 8.26707 1.5233 8.23232 1.54184 8.19513C1.56032 8.15806 1.57996 8.11855 1.60068 8.07692C1.62156 8.03543 1.6456 7.99287 1.66946 7.94792C1.69362 7.90322 1.7188 7.85662 1.74486 7.80838C1.77232 7.76108 1.8007 7.71213 1.8299 7.66181C1.84444 7.63669 1.85918 7.61124 1.8741 7.58548C1.8898 7.56019 1.9057 7.53464 1.92176 7.50873C1.95388 7.45712 1.9867 7.40442 2.02008 7.35077C2.091 7.2463 2.16035 7.13628 2.23873 7.03016C2.25787 7.00334 2.27709 6.97643 2.29637 6.94944L2.32527 6.90892L2.35555 6.8693C2.39587 6.81646 2.43635 6.76345 2.47683 6.71045C2.51805 6.65809 2.56083 6.60708 2.60241 6.55564C2.62349 6.5301 2.64373 6.50405 2.66531 6.47922C2.68691 6.45444 2.70843 6.42971 2.72987 6.40509C2.75127 6.38049 2.77257 6.356 2.79377 6.33161C2.81477 6.3071 2.83597 6.28302 2.85799 6.25994C2.90131 6.21326 2.94411 6.16714 2.98621 6.12175C3.02823 6.07645 3.07209 6.03441 3.11349 5.99192C3.15521 5.94973 3.19557 5.90811 3.23713 5.86997C3.27801 5.83126 3.31777 5.79361 3.35625 5.75717C3.39441 5.72052 3.43373 5.68781 3.47005 5.65497C3.50661 5.62257 3.54165 5.59152 3.57497 5.56199C3.60769 5.53504 3.63873 5.50948 3.66789 5.48542C3.69689 5.46141 3.72403 5.43891 3.74913 5.4181C3.76065 5.4082 3.77625 5.39633 3.78943 5.38591C3.80295 5.37527 3.81585 5.36516 3.82809 5.35556C3.85475 5.33461 3.87829 5.31613 3.89845 5.30031C3.94379 5.2647 3.95081 5.19682 3.91393 5.15187L3.05523 4.10511C3.01835 4.06016 2.95281 4.05672 2.91191 4.09772C2.89373 4.11595 2.87247 4.13724 2.84843 4.16136C2.83739 4.17241 2.82575 4.18409 2.81355 4.1963C2.80113 4.20885 2.78931 4.22028 2.77391 4.23665C2.74447 4.26756 2.71265 4.301 2.67863 4.33671C2.64479 4.37244 2.60877 4.41047 2.57079 4.45055C2.53549 4.49034 2.49837 4.53217 2.45965 4.57581C2.42141 4.61978 2.38017 4.66409 2.34027 4.71266C2.30021 4.76098 2.25881 4.81095 2.21623 4.86229C2.17313 4.91302 2.13143 4.96753 2.08854 5.02282C2.04596 5.07841 2.00108 5.13387 1.95826 5.19264C1.91556 5.25141 1.87216 5.31115 1.82824 5.37167C1.80592 5.40166 1.78458 5.43263 1.7635 5.46405Z" fill="#757579"/>
<path d="M0.2031 9.13407C0.19808 9.15979 0.1922 9.18993 0.18554 9.22397C0.17944 9.25523 0.17268 9.28986 0.16532 9.32755C0.1581 9.36609 0.15104 9.4116 0.14316 9.45805C0.1354 9.50496 0.12716 9.55486 0.11848 9.60747C0.11428 9.63369 0.10948 9.66079 0.1055 9.68811C0.10196 9.71527 0.0983598 9.74303 0.0946598 9.77136C0.0805798 9.88484 0.0620399 10.0069 0.0513599 10.1374C0.0451599 10.2024 0.0387999 10.2691 0.0322999 10.3373C0.0269399 10.4057 0.0233599 10.4756 0.01874 10.5466C0.00793998 10.6883 0.00595999 10.8353 0.00146 10.984L0 11.0399L0.000259999 11.096C0.000459999 11.1335 0.000659999 11.1711 0.000859998 11.2087C0.00108 11.2463 0.0013 11.284 0.0015 11.3217L0.00184 11.3782L0.00391999 11.4348C0.00685998 11.5101 0.00979998 11.5854 0.01274 11.6604L0.01496 11.7165L0.01564 11.7346L0.01852 11.7752C0.02108 11.8112 0.0236199 11.8472 0.0261599 11.883C0.0286999 11.9188 0.0312399 11.9545 0.0337399 11.9899C0.0371999 12.0269 0.0406199 12.0638 0.0440599 12.1004C0.0475199 12.137 0.0509599 12.1734 0.0543799 12.2095C0.0560999 12.2275 0.0578199 12.2455 0.0595399 12.2633C0.0616799 12.2809 0.0638198 12.2985 0.0659398 12.316C0.0744598 12.3857 0.0828398 12.4543 0.0910398 12.5214C0.10094 12.5882 0.11062 12.6536 0.12002 12.7173C0.12882 12.7809 0.14016 12.8424 0.15058 12.9019C0.15144 12.9067 0.1523 12.9114 0.15314 12.9161C0.16184 12.9648 0.20252 13 0.250059 13H0.515879C0.572639 13 0.617679 12.9503 0.614339 12.8913C0.613439 12.8756 0.612519 12.8597 0.611499 12.8437C0.608179 12.7863 0.604179 12.7272 0.602899 12.6661C0.600979 12.6052 0.599019 12.5426 0.596999 12.4786C0.596619 12.4147 0.596239 12.3494 0.595859 12.2829C0.595759 12.2663 0.595659 12.2497 0.595559 12.233C0.595899 12.2165 0.596259 12.2 0.596619 12.1833C0.597319 12.1502 0.598019 12.1168 0.598739 12.0832C0.599439 12.0497 0.600159 12.0159 0.600879 11.982C0.602479 11.9464 0.604059 11.9107 0.605679 11.8749C0.607279 11.839 0.608899 11.803 0.610499 11.7669L0.612319 11.7262L0.612399 11.7245C0.612399 11.7202 0.612479 11.7285 0.612519 11.7271L0.612759 11.7238L0.617299 11.6647C0.622659 11.5947 0.628039 11.5245 0.633439 11.4542L0.637559 11.4016L0.643378 11.3491C0.647258 11.3142 0.651118 11.2793 0.654978 11.2445C0.658818 11.2097 0.662658 11.175 0.666478 11.1404L0.672178 11.0887L0.679558 11.0372C0.699798 10.9005 0.716998 10.766 0.742198 10.6372C0.754018 10.5727 0.764598 10.5092 0.776738 10.4475C0.789958 10.3859 0.802878 10.3257 0.815458 10.2671C0.838738 10.1497 0.868918 10.0406 0.893478 9.93943C0.899778 9.91418 0.905938 9.88944 0.911958 9.8653C0.918318 9.84151 0.925178 9.81899 0.931498 9.79668C0.944238 9.75229 0.956338 9.7102 0.967698 9.67059C0.979318 9.63068 0.988858 9.59499 0.999978 9.55917C1.01164 9.52263 1.02232 9.48914 1.032 9.45886C1.04252 9.42586 1.05182 9.39672 1.05978 9.37175C1.07768 9.31571 1.04642 9.25563 0.991538 9.24041L0.325159 9.05551C0.270259 9.04025 0.214419 9.07615 0.2031 9.13407Z" fill="#757579"/>
<path d="M7.74632 12.728C7.96312 12.8383 8.19278 12.8906 8.41888 12.8906C8.98644 12.8906 9.53188 12.5616 9.79794 11.9953C9.84918 11.8862 9.88884 11.7659 9.91464 11.6526L12.4231 0.323462C12.4657 0.131066 12.3186 0 12.1711 0C12.0847 0 11.9981 0.0449306 11.9493 0.148755L7.04206 10.5933C6.67 11.3851 6.98532 12.3409 7.74632 12.728ZM8.47576 10.4715C8.89094 10.4715 9.22752 10.8217 9.22752 11.2537C9.22752 11.6857 8.89094 12.0359 8.47576 12.0359C8.06058 12.0359 7.724 11.6857 7.724 11.2537C7.724 10.8216 8.06058 10.4715 8.47576 10.4715Z" fill="#757579"/>
</svg>
