<svg width="13" height="14" viewBox="0 0 13 14" fill="none" xmlns="http://www.w3.org/2000/svg">
<path d="M8.35714 3.12924e-08H0.928571C0.416464 3.12924e-08 0 0.4186 0 0.933333V13.0667C0 13.5814 0.416464 14 0.928571 14H8.35714C8.86925 14 9.28571 13.5814 9.28571 13.0667V0.933333C9.28571 0.4186 8.86925 3.12924e-08 8.35714 3.12924e-08ZM7.42857 4.66667C7.42857 5.1814 7.01211 5.6 6.5 5.6H2.78571C2.27361 5.6 1.85714 5.1814 1.85714 4.66667V2.8C1.85714 2.28527 2.27361 1.86667 2.78571 1.86667H6.5C7.01211 1.86667 7.42857 2.28527 7.42857 2.8V4.66667Z" fill="#757579"/>
<path d="M10.6786 5.6H8.82143C8.56514 5.6 8.35714 5.39093 8.35714 5.13333C8.35714 4.87573 8.56514 4.66667 8.82143 4.66667H10.6786C10.9349 4.66667 11.1429 4.87573 11.1429 5.13333C11.1429 5.39093 10.9349 5.6 10.6786 5.6Z" fill="#757579"/>
<path d="M10.6786 13.0667C10.4223 13.0667 10.2143 12.8576 10.2143 12.6V5.13333C10.2143 4.87573 10.4223 4.66667 10.6786 4.66667C10.9349 4.66667 11.1429 4.87573 11.1429 5.13333V12.6C11.1429 12.8576 10.9349 13.0667 10.6786 13.0667Z" fill="#757579"/>
<path d="M12.5357 13.0667H10.6786C10.4223 13.0667 10.2143 12.8576 10.2143 12.6C10.2143 12.3424 10.4223 12.1333 10.6786 12.1333H12.5357C12.792 12.1333 13 12.3424 13 12.6C13 12.8576 12.792 13.0667 12.5357 13.0667Z" fill="#757579"/>
<path d="M12.9642 2.15518C12.9405 2.09825 12.9066 2.04645 12.8639 2.00352L11.0067 0.13685C10.8252 -0.0456167 10.5318 -0.0456167 10.3502 0.13685C10.1687 0.319317 10.1687 0.614245 10.3502 0.796712L10.6724 1.12059C10.3841 1.45752 10.2142 1.88405 10.2142 2.33345C10.2142 3.36292 11.0471 4.20011 12.0713 4.20011V12.6001C12.0713 12.8577 12.2794 13.0667 12.5357 13.0667C12.792 13.0667 13 12.8576 13 12.6L12.9999 2.33345C12.9999 2.27278 12.9874 2.21212 12.9642 2.15518Z" fill="#757579"/>
</svg>
