<svg width="19" height="19" viewBox="0 0 19 19" fill="none" xmlns="http://www.w3.org/2000/svg">
<path d="M18.979 4.69959C18.979 4.6795 18.979 4.6795 18.979 4.65942C18.9581 4.61925 18.9581 4.57908 18.9371 4.53892V4.51883C18.9161 4.47867 18.8742 4.4385 18.8532 4.41842L18.8322 4.39833C18.8113 4.37825 18.7693 4.35816 18.7483 4.33808L18.7274 4.318H18.7064L18.6854 4.29791L9.77263 0.0602511C9.60486 -0.0200837 9.39514 -0.0200837 9.2064 0.0602511L6.20751 1.48619L15.1623 5.88453L15.1832 5.90461C15.2042 5.90461 15.2042 5.92469 15.2252 5.92469C15.2461 5.94478 15.2461 5.96486 15.2671 5.98494C15.2671 6.00503 15.2671 6.00503 15.2671 6.02511V10.7046C15.2671 10.785 15.2252 10.8452 15.1623 10.8854L13.3587 11.7891C13.2539 11.8494 13.128 11.8092 13.0651 11.7088C13.0442 11.6887 13.0441 11.6486 13.0441 11.6084V7.04938L3.98455 2.57071L3.96358 2.55063L0.335541 4.27783L0.31457 4.29791H0.293598L0.272627 4.318C0.251656 4.33808 0.209713 4.35816 0.188742 4.37825L0.16777 4.39833C0.125828 4.4385 0.104857 4.47867 0.0629139 4.51883V4.53892C0.0419426 4.57908 0.0209713 4.61925 0.0209713 4.65942C0.0209713 4.6795 0.0209713 4.6795 0.0209713 4.69959C0.0209713 4.73975 0 4.75984 0 4.80001V14.1791C0 14.4 0.125828 14.6209 0.356512 14.7214L9.18543 18.9389C9.31126 18.9992 9.45806 19.0193 9.60486 18.9791L9.6468 18.959C9.68874 18.959 9.70971 18.9389 9.75166 18.9188L18.6435 14.7013C18.8532 14.6009 19 14.4 19 14.159V4.80001C18.979 4.75984 18.979 4.73975 18.979 4.69959Z" fill="#757579"/>
</svg>
